<svg xmlns="http://www.w3.org/2000/svg" xmlns:xlink= "http://www.w3.org/1999/xlink" width="14" height="14" viewBox="0 0 24 24" stroke="#000000" stroke-width="2" fill="transparent">
    <path
        d="M17.4444 10H6.55556C5.69645 10 5 10.9768 5 12.1818V19.8182C5 21.0232 5.69645 22 6.55556 22H17.4444C18.3036 22 19 21.0232 19 19.8182V12.1818C19 10.9768 18.3036 10 17.4444 10Z"
        stroke-width="2" stroke-linecap="round" stroke-linejoin="round"></path>
    <path
        d="M7 10V6.44444C7 5.2657 7.52678 4.13524 8.46447 3.30175C9.40215 2.46825 10.6739 2 12 2C13.3261 2 14.5979 2.46825 15.5355 3.30175C16.4732 4.13524 17 5.2657 17 6.44444V10"
        stroke-width="2" stroke-linecap="round" stroke-linejoin="round"></path>
</svg>